<svg width="1921" height="1164" viewBox="0 0 1921 1164" fill="none" xmlns="http://www.w3.org/2000/svg">
<g filter="url(#filter0_d)">
<g opacity="0.2">
<path d="M315.192 178.905C314.674 175.111 314.074 171.305 313.318 167.494C307.627 138.686 295.795 112.664 279.494 90.4529C260.138 64.073 234.438 43.119 205.089 29.3841C172.314 14.0578 135.007 7.74389 96.905 12.9737C93.1109 13.4927 89.311 14.0924 85.4996 14.8477C56.6864 20.5389 30.664 32.3709 8.45872 48.6717C-17.927 68.0285 -38.881 93.728 -52.6101 123.078C-67.9422 155.852 -74.2561 193.159 -69.0262 231.261C-68.5073 235.055 -67.9076 238.861 -67.1522 242.672C-61.4611 271.48 -49.629 297.502 -33.3282 319.713C-13.9657 346.099 11.7281 367.047 41.0833 380.782C73.8579 396.108 111.165 402.422 149.261 397.192C153.061 396.673 156.861 396.074 160.672 395.318C189.48 389.627 215.502 377.795 237.713 361.494C264.099 342.138 285.053 316.438 298.782 287.089C314.108 254.314 320.422 217.002 315.192 178.905" fill="#F68B9B"/>
<path d="M304.026 167.739C303.507 163.945 302.908 160.145 302.152 156.334C296.461 127.52 284.629 101.498 268.328 79.2927C248.966 52.907 223.272 31.9529 193.917 18.2181C161.142 2.89177 123.835 -3.42212 85.7388 1.80773C81.939 2.32668 78.1391 2.92634 74.3277 3.6817C45.5202 9.37285 19.4978 21.2049 -2.71323 37.5057C-29.0989 56.8683 -50.053 82.562 -63.7821 111.917C-79.1084 144.692 -85.4223 181.999 -80.1924 220.095C-79.6734 223.889 -79.0738 227.695 -78.3184 231.506C-72.6273 260.314 -60.7952 286.336 -44.4944 308.547C-25.1376 334.933 0.561914 355.887 29.9114 369.616C62.6859 384.942 99.9926 391.256 138.095 386.026C141.889 385.507 145.689 384.908 149.5 384.152C178.314 378.461 204.336 366.629 226.541 350.328C252.927 330.972 273.881 305.272 287.61 275.923C302.942 243.148 309.256 205.841 304.026 167.739" fill="#FEF4E8"/>
<path d="M111.917 193.915C96.343 236.717 80.8322 279.565 135.864 369.684C139.341 369.205 142.818 368.657 146.306 367.971C172.663 362.759 196.477 351.936 216.791 337.019C134.117 287.084 122.994 240.5 111.917 193.915Z" fill="#5A3C24"/>
<path d="M111.917 193.915C96.343 236.717 80.8322 279.565 135.864 369.684C139.341 369.205 142.818 368.657 146.306 367.971C172.663 362.759 196.477 351.936 216.791 337.019C134.117 287.084 122.994 240.5 111.917 193.915Z" stroke="#F1EBED" stroke-width="0.666667" stroke-miterlimit="10"/>
<path d="M111.917 193.913C65.3322 204.989 18.7421 216.118 -31.1924 298.792C-13.4789 322.929 10.0353 342.102 36.888 354.666C40.8436 257.836 76.3685 225.851 111.917 193.913Z" fill="#5A3C24"/>
<path d="M111.917 193.913C65.3322 204.989 18.7421 216.118 -31.1924 298.792C-13.4789 322.929 10.0353 342.102 36.888 354.666C40.8436 257.836 76.3685 225.851 111.917 193.913Z" stroke="#F1EBED" stroke-width="0.666667" stroke-miterlimit="10"/>
<path d="M111.917 193.913C143.855 229.461 175.84 264.986 272.664 268.941C286.693 238.958 292.465 204.822 287.685 169.966C197.566 224.998 154.724 209.487 111.917 193.913Z" fill="#5A3C24"/>
<path d="M111.917 193.913C143.855 229.461 175.84 264.986 272.664 268.941C286.693 238.958 292.465 204.822 287.685 169.966C197.566 224.998 154.724 209.487 111.917 193.913Z" stroke="#F1EBED" stroke-width="0.666667" stroke-miterlimit="10"/>
<path d="M111.914 193.915C79.9751 158.367 47.9906 122.842 -48.8339 118.886C-62.8628 148.876 -68.6347 183.005 -63.8546 217.867C26.2639 162.83 69.1118 178.341 111.914 193.915Z" fill="#5A3C24"/>
<path d="M111.914 193.915C79.9751 158.367 47.9906 122.842 -48.8339 118.886C-62.8628 148.876 -68.6347 183.005 -63.8546 217.867C26.2639 162.83 69.1118 178.341 111.914 193.915Z" stroke="#F1EBED" stroke-width="0.666667" stroke-miterlimit="10"/>
<path d="M111.917 193.912C127.491 151.105 143.002 108.262 87.9644 18.1439C84.4932 18.6225 81.0105 19.1703 77.5277 19.8565C51.1651 25.069 27.3569 35.892 7.03711 50.8031C89.7173 100.743 100.84 147.328 111.917 193.912Z" fill="#5A3C24"/>
<path d="M111.917 193.912C127.491 151.105 143.002 108.262 87.9644 18.1439C84.4932 18.6225 81.0105 19.1703 77.5277 19.8565C51.1651 25.069 27.3569 35.892 7.03711 50.8031C89.7173 100.743 100.84 147.328 111.917 193.912Z" stroke="#F1EBED" stroke-width="0.666667" stroke-miterlimit="10"/>
<path d="M111.917 193.912C158.501 182.835 205.085 171.713 255.025 89.0382C237.306 64.8955 213.798 45.7232 186.945 33.1646C182.99 129.989 147.465 161.974 111.917 193.912Z" fill="#5A3C24"/>
<path d="M111.917 193.912C158.501 182.835 205.085 171.713 255.025 89.0382C237.306 64.8955 213.798 45.7232 186.945 33.1646C182.99 129.989 147.465 161.974 111.917 193.912Z" stroke="#F1EBED" stroke-width="0.666667" stroke-miterlimit="10"/>
<path d="M111.917 193.915C154.724 209.49 197.566 225 287.685 169.969C287.206 166.492 286.658 163.015 285.972 159.526C280.76 133.169 269.937 109.355 255.025 89.0413C205.085 171.716 158.501 182.839 111.917 193.915Z" fill="#F68B9B"/>
<path d="M111.917 193.915C154.724 209.49 197.566 225 287.685 169.969C287.206 166.492 286.658 163.015 285.972 159.526C280.76 133.169 269.937 109.355 255.025 89.0413C205.085 171.716 158.501 182.839 111.917 193.915Z" stroke="#F1EBED" stroke-width="0.666667" stroke-miterlimit="10"/>
<path d="M111.917 193.918C76.3685 225.856 40.8435 257.841 36.8879 354.671C66.8717 368.694 101.007 374.466 135.863 369.686C80.8314 279.573 96.3423 236.725 111.917 193.918Z" fill="#F68B9B"/>
<path d="M111.917 193.918C76.3685 225.856 40.8435 257.841 36.8879 354.671C66.8717 368.694 101.007 374.466 135.863 369.686C80.8314 279.573 96.3423 236.725 111.917 193.918Z" stroke="#F1EBED" stroke-width="0.666667" stroke-miterlimit="10"/>
<path d="M111.917 193.918C122.993 240.503 134.116 287.087 216.791 337.021C240.933 319.308 260.106 295.8 272.664 268.941C175.84 264.991 143.855 229.466 111.917 193.918Z" fill="#F68B9B"/>
<path d="M111.917 193.918C122.993 240.503 134.116 287.087 216.791 337.021C240.933 319.308 260.106 295.8 272.664 268.941C175.84 264.991 143.855 229.466 111.917 193.918Z" stroke="#F1EBED" stroke-width="0.666667" stroke-miterlimit="10"/>
<path d="M111.917 193.913C69.1098 178.339 26.2619 162.828 -63.8508 217.866C-63.3722 221.337 -62.8245 224.82 -62.1383 228.302C-56.9315 254.665 -46.1028 278.473 -31.1916 298.793C18.7429 216.119 65.333 204.99 111.917 193.913Z" fill="#F68B9B"/>
<path d="M111.917 193.913C69.1098 178.339 26.2619 162.828 -63.8508 217.866C-63.3722 221.337 -62.8245 224.82 -62.1383 228.302C-56.9315 254.665 -46.1028 278.473 -31.1916 298.793C18.7429 216.119 65.333 204.99 111.917 193.913Z" stroke="#F1EBED" stroke-width="0.666667" stroke-miterlimit="10"/>
<path d="M111.917 193.912C147.465 161.974 182.99 129.989 186.946 33.1646C156.956 19.1357 122.826 13.3638 87.9646 18.1439C143.002 108.262 127.491 151.105 111.917 193.912Z" fill="#F68B9B"/>
<path d="M111.917 193.912C147.465 161.974 182.99 129.989 186.946 33.1646C156.956 19.1357 122.826 13.3638 87.9646 18.1439C143.002 108.262 127.491 151.105 111.917 193.912Z" stroke="#F1EBED" stroke-width="0.666667" stroke-miterlimit="10"/>
<path d="M111.914 193.912C100.844 147.328 89.715 100.743 7.04055 50.8031C-17.1021 68.5224 -36.2744 92.0308 -48.833 118.884C47.9914 122.839 79.976 158.364 111.914 193.912Z" fill="#F68B9B"/>
<path d="M111.914 193.912C100.844 147.328 89.715 100.743 7.04055 50.8031C-17.1021 68.5224 -36.2744 92.0308 -48.833 118.884C47.9914 122.839 79.976 158.364 111.914 193.912Z" stroke="#F1EBED" stroke-width="0.666667" stroke-miterlimit="10"/>
<g opacity="0.580002">
<g opacity="0.580002">
<path opacity="0.580002" d="M-8.48438 213.889C-8.23067 215.44 -7.94236 216.98 -7.63099 218.508" stroke="#F68B9B" stroke-width="14.6667" stroke-miterlimit="10" stroke-linecap="round" stroke-linejoin="round"/>
</g>
</g>
<g opacity="0.580002">
<g opacity="0.580002">
<path opacity="0.580002" d="M196.57 106.028C174.63 84.8898 144.791 71.893 111.918 71.893C63.7769 71.893 22.1456 99.7721 2.28711 140.262" stroke="#F68B9B" stroke-width="14.6667" stroke-miterlimit="10" stroke-linecap="round" stroke-linejoin="round"/>
</g>
</g>
</g>
<g opacity="0.2">
<path d="M316.434 687.048C316.271 685.859 316.083 684.667 315.847 683.473C314.064 674.448 310.357 666.296 305.25 659.337C299.186 651.073 291.135 644.508 281.94 640.206C271.672 635.404 259.985 633.426 248.048 635.064C246.859 635.227 245.669 635.415 244.475 635.652C235.448 637.434 227.296 641.141 220.339 646.248C212.073 652.312 205.509 660.363 201.207 669.558C196.404 679.826 194.426 691.513 196.065 703.45C196.227 704.639 196.415 705.831 196.652 707.025C198.435 716.05 202.141 724.202 207.248 731.161C213.314 739.427 221.364 745.99 230.56 750.293C240.828 755.094 252.515 757.072 264.45 755.434C265.641 755.271 266.831 755.083 268.025 754.847C277.05 753.064 285.203 749.357 292.161 744.25C300.427 738.186 306.992 730.135 311.293 720.94C316.094 710.672 318.072 698.983 316.434 687.048" fill="#F68B9B"/>
<path d="M312.936 683.55C312.773 682.361 312.585 681.171 312.348 679.977C310.566 670.95 306.859 662.798 301.752 655.841C295.686 647.575 287.637 641.01 278.44 636.707C268.172 631.906 256.485 629.928 244.55 631.566C243.359 631.729 242.169 631.917 240.975 632.153C231.95 633.936 223.798 637.643 216.839 642.75C208.573 648.816 202.008 656.865 197.707 666.062C192.906 676.33 190.928 688.017 192.566 699.952C192.729 701.141 192.917 702.333 193.153 703.527C194.936 712.552 198.643 720.704 203.75 727.663C209.814 735.929 217.865 742.493 227.06 746.795C237.328 751.596 249.015 753.574 260.952 751.936C262.141 751.773 263.331 751.585 264.525 751.349C273.552 749.566 281.704 745.859 288.661 740.752C296.927 734.688 303.492 726.637 307.793 717.442C312.596 707.174 314.574 695.487 312.936 683.55" fill="#FEF4E8"/>
<path d="M252.751 691.751C247.872 705.16 243.013 718.584 260.253 746.816C261.342 746.666 262.432 746.495 263.525 746.28C271.782 744.647 279.242 741.256 285.606 736.583C259.706 720.939 256.221 706.345 252.751 691.751Z" fill="#5A3C24"/>
<path d="M252.751 691.751C247.872 705.16 243.013 718.584 260.253 746.816C261.342 746.666 262.432 746.495 263.525 746.28C271.782 744.647 279.242 741.256 285.606 736.583C259.706 720.939 256.221 706.345 252.751 691.751Z" stroke="#F1EBED" stroke-width="0.666667" stroke-miterlimit="10"/>
<path d="M252.751 691.75C238.157 695.22 223.561 698.707 207.917 724.607C213.467 732.169 220.833 738.175 229.246 742.111C230.485 711.776 241.614 701.756 252.751 691.75Z" fill="#5A3C24"/>
<path d="M252.751 691.75C238.157 695.22 223.561 698.707 207.917 724.607C213.467 732.169 220.833 738.175 229.246 742.111C230.485 711.776 241.614 701.756 252.751 691.75Z" stroke="#F1EBED" stroke-width="0.666667" stroke-miterlimit="10"/>
<path d="M252.751 691.749C262.757 702.885 272.777 714.015 303.11 715.254C307.505 705.861 309.313 695.166 307.816 684.247C279.583 701.487 266.162 696.628 252.751 691.749Z" fill="#5A3C24"/>
<path d="M252.751 691.749C262.757 702.885 272.777 714.015 303.11 715.254C307.505 705.861 309.313 695.166 307.816 684.247C279.583 701.487 266.162 696.628 252.751 691.749Z" stroke="#F1EBED" stroke-width="0.666667" stroke-miterlimit="10"/>
<path d="M252.75 691.75C242.744 680.613 232.724 669.484 202.39 668.245C197.995 677.64 196.187 688.332 197.685 699.254C225.917 682.012 239.341 686.871 252.75 691.75Z" fill="#5A3C24"/>
<path d="M252.75 691.75C242.744 680.613 232.724 669.484 202.39 668.245C197.995 677.64 196.187 688.332 197.685 699.254C225.917 682.012 239.341 686.871 252.75 691.75Z" stroke="#F1EBED" stroke-width="0.666667" stroke-miterlimit="10"/>
<path d="M252.751 691.75C257.63 678.339 262.489 664.917 245.247 636.685C244.159 636.835 243.068 637.006 241.977 637.221C233.718 638.854 226.26 642.245 219.894 646.916C245.796 662.562 249.281 677.156 252.751 691.75Z" fill="#5A3C24"/>
<path d="M252.751 691.75C257.63 678.339 262.489 664.917 245.247 636.685C244.159 636.835 243.068 637.006 241.977 637.221C233.718 638.854 226.26 642.245 219.894 646.916C245.796 662.562 249.281 677.156 252.751 691.75Z" stroke="#F1EBED" stroke-width="0.666667" stroke-miterlimit="10"/>
<path d="M252.751 691.75C267.345 688.28 281.939 684.795 297.584 658.895C292.033 651.331 284.668 645.325 276.256 641.391C275.017 671.724 263.887 681.744 252.751 691.75Z" fill="#5A3C24"/>
<path d="M252.751 691.75C267.345 688.28 281.939 684.795 297.584 658.895C292.033 651.331 284.668 645.325 276.256 641.391C275.017 671.724 263.887 681.744 252.751 691.75Z" stroke="#F1EBED" stroke-width="0.666667" stroke-miterlimit="10"/>
<path d="M252.751 691.75C266.162 696.629 279.583 701.489 307.816 684.248C307.666 683.159 307.494 682.07 307.279 680.977C305.646 672.719 302.256 665.259 297.584 658.895C281.939 684.795 267.345 688.28 252.751 691.75Z" fill="#F68B9B"/>
<path d="M252.751 691.75C266.162 696.629 279.583 701.489 307.816 684.248C307.666 683.159 307.494 682.07 307.279 680.977C305.646 672.719 302.256 665.259 297.584 658.895C281.939 684.795 267.345 688.28 252.751 691.75Z" stroke="#F1EBED" stroke-width="0.666667" stroke-miterlimit="10"/>
<path d="M252.751 691.751C241.614 701.757 230.485 711.777 229.246 742.113C238.639 746.506 249.333 748.314 260.253 746.816C243.012 718.586 247.872 705.162 252.751 691.751Z" fill="#F68B9B"/>
<path d="M252.751 691.751C241.614 701.757 230.485 711.777 229.246 742.113C238.639 746.506 249.333 748.314 260.253 746.816C243.012 718.586 247.872 705.162 252.751 691.751Z" stroke="#F1EBED" stroke-width="0.666667" stroke-miterlimit="10"/>
<path d="M252.751 691.752C256.221 706.346 259.706 720.94 285.606 736.584C293.17 731.035 299.176 723.67 303.11 715.256C272.777 714.018 262.757 702.889 252.751 691.752Z" fill="#F68B9B"/>
<path d="M252.751 691.752C256.221 706.346 259.706 720.94 285.606 736.584C293.17 731.035 299.176 723.67 303.11 715.256C272.777 714.018 262.757 702.889 252.751 691.752Z" stroke="#F1EBED" stroke-width="0.666667" stroke-miterlimit="10"/>
<path d="M252.751 691.75C239.34 686.871 225.917 682.012 197.686 699.254C197.836 700.342 198.007 701.433 198.222 702.524C199.853 710.783 203.246 718.242 207.917 724.607C223.561 698.707 238.157 695.221 252.751 691.75Z" fill="#F68B9B"/>
<path d="M252.751 691.75C239.34 686.871 225.917 682.012 197.686 699.254C197.836 700.342 198.007 701.433 198.222 702.524C199.853 710.783 203.246 718.242 207.917 724.607C223.561 698.707 238.157 695.221 252.751 691.75Z" stroke="#F1EBED" stroke-width="0.666667" stroke-miterlimit="10"/>
<path d="M252.751 691.75C263.888 681.744 275.017 671.724 276.256 641.391C266.861 636.995 256.169 635.187 245.247 636.685C262.489 664.917 257.63 678.339 252.751 691.75Z" fill="#F68B9B"/>
<path d="M252.751 691.75C263.888 681.744 275.017 671.724 276.256 641.391C266.861 636.995 256.169 635.187 245.247 636.685C262.489 664.917 257.63 678.339 252.751 691.75Z" stroke="#F1EBED" stroke-width="0.666667" stroke-miterlimit="10"/>
<path d="M252.75 691.75C249.282 677.156 245.795 662.562 219.895 646.916C212.331 652.468 206.325 659.832 202.391 668.245C232.724 669.484 242.744 680.613 252.75 691.75Z" fill="#F68B9B"/>
<path d="M252.75 691.75C249.282 677.156 245.795 662.562 219.895 646.916C212.331 652.468 206.325 659.832 202.391 668.245C232.724 669.484 242.744 680.613 252.75 691.75Z" stroke="#F1EBED" stroke-width="0.666667" stroke-miterlimit="10"/>
<g opacity="0.580002">
<g opacity="0.580002">
<path opacity="0.580002" d="M215.031 698.008C215.111 698.494 215.201 698.976 215.299 699.455" stroke="#F68B9B" stroke-width="14.6667" stroke-miterlimit="10" stroke-linecap="round" stroke-linejoin="round"/>
</g>
</g>
<g opacity="0.580002">
<g opacity="0.580002">
<path opacity="0.580002" d="M279.271 664.217C272.398 657.594 263.05 653.523 252.751 653.523C237.669 653.523 224.627 662.257 218.406 674.941" stroke="#F68B9B" stroke-width="14.6667" stroke-miterlimit="10" stroke-linecap="round" stroke-linejoin="round"/>
</g>
</g>
</g>
<g opacity="0.2">
<path d="M1859.43 131.048C1859.27 129.859 1859.08 128.667 1858.85 127.473C1857.06 118.448 1853.36 110.296 1848.25 103.337C1842.19 95.073 1834.13 88.5084 1824.94 84.2055C1814.67 79.4041 1802.98 77.426 1791.05 79.0645C1789.86 79.227 1788.67 79.4149 1787.47 79.6515C1778.45 81.4345 1770.3 85.1413 1763.34 90.248C1755.07 96.3122 1748.51 104.363 1744.21 113.558C1739.4 123.826 1737.43 135.513 1739.06 147.45C1739.23 148.639 1739.41 149.831 1739.65 151.025C1741.43 160.05 1745.14 168.202 1750.25 175.161C1756.31 183.427 1764.36 189.99 1773.56 194.293C1783.83 199.094 1795.52 201.072 1807.45 199.434C1808.64 199.271 1809.83 199.083 1811.03 198.847C1820.05 197.064 1828.2 193.357 1835.16 188.25C1843.43 182.186 1849.99 174.135 1854.29 164.94C1859.09 154.672 1861.07 142.983 1859.43 131.048" fill="#F68B9B"/>
<path d="M1855.94 127.55C1855.77 126.361 1855.59 125.171 1855.35 123.977C1853.57 114.95 1849.86 106.798 1844.75 99.8411C1838.69 91.5749 1830.64 85.0104 1821.44 80.7075C1811.17 75.906 1799.48 73.928 1787.55 75.5664C1786.36 75.729 1785.17 75.9168 1783.97 76.1535C1774.95 77.9364 1766.8 81.6432 1759.84 86.75C1751.57 92.8159 1745.01 100.865 1740.71 110.062C1735.91 120.33 1733.93 132.017 1735.57 143.952C1735.73 145.141 1735.92 146.333 1736.15 147.527C1737.94 156.552 1741.64 164.704 1746.75 171.663C1752.81 179.929 1760.87 186.493 1770.06 190.795C1780.33 195.596 1792.02 197.574 1803.95 195.936C1805.14 195.773 1806.33 195.585 1807.53 195.349C1816.55 193.566 1824.7 189.859 1831.66 184.752C1839.93 178.688 1846.49 170.637 1850.79 161.442C1855.6 151.174 1857.57 139.487 1855.94 127.55" fill="#FEF4E8"/>
<path d="M1795.75 135.751C1790.87 149.16 1786.01 162.584 1803.25 190.816C1804.34 190.666 1805.43 190.495 1806.52 190.28C1814.78 188.647 1822.24 185.256 1828.61 180.583C1802.71 164.939 1799.22 150.345 1795.75 135.751Z" fill="#5A3C24"/>
<path d="M1795.75 135.751C1790.87 149.16 1786.01 162.584 1803.25 190.816C1804.34 190.666 1805.43 190.495 1806.52 190.28C1814.78 188.647 1822.24 185.256 1828.61 180.583C1802.71 164.939 1799.22 150.345 1795.75 135.751Z" stroke="#F1EBED" stroke-width="0.666667" stroke-miterlimit="10"/>
<path d="M1795.75 135.75C1781.16 139.22 1766.56 142.707 1750.92 168.607C1756.47 176.169 1763.83 182.175 1772.25 186.111C1773.48 155.776 1784.61 145.756 1795.75 135.75Z" fill="#5A3C24"/>
<path d="M1795.75 135.75C1781.16 139.22 1766.56 142.707 1750.92 168.607C1756.47 176.169 1763.83 182.175 1772.25 186.111C1773.48 155.776 1784.61 145.756 1795.75 135.75Z" stroke="#F1EBED" stroke-width="0.666667" stroke-miterlimit="10"/>
<path d="M1795.75 135.749C1805.76 146.885 1815.78 158.015 1846.11 159.254C1850.51 149.861 1852.31 139.166 1850.82 128.247C1822.58 145.487 1809.16 140.628 1795.75 135.749Z" fill="#5A3C24"/>
<path d="M1795.75 135.749C1805.76 146.885 1815.78 158.015 1846.11 159.254C1850.51 149.861 1852.31 139.166 1850.82 128.247C1822.58 145.487 1809.16 140.628 1795.75 135.749Z" stroke="#F1EBED" stroke-width="0.666667" stroke-miterlimit="10"/>
<path d="M1795.75 135.75C1785.74 124.613 1775.72 113.484 1745.39 112.245C1741 121.64 1739.19 132.332 1740.68 143.254C1768.92 126.012 1782.34 130.871 1795.75 135.75Z" fill="#5A3C24"/>
<path d="M1795.75 135.75C1785.74 124.613 1775.72 113.484 1745.39 112.245C1741 121.64 1739.19 132.332 1740.68 143.254C1768.92 126.012 1782.34 130.871 1795.75 135.75Z" stroke="#F1EBED" stroke-width="0.666667" stroke-miterlimit="10"/>
<path d="M1795.75 135.75C1800.63 122.339 1805.49 108.917 1788.25 80.6848C1787.16 80.8347 1786.07 81.0063 1784.98 81.2213C1776.72 82.8543 1769.26 86.2449 1762.89 90.9164C1788.8 106.562 1792.28 121.156 1795.75 135.75Z" fill="#5A3C24"/>
<path d="M1795.75 135.75C1800.63 122.339 1805.49 108.917 1788.25 80.6848C1787.16 80.8347 1786.07 81.0063 1784.98 81.2213C1776.72 82.8543 1769.26 86.2449 1762.89 90.9164C1788.8 106.562 1792.28 121.156 1795.75 135.75Z" stroke="#F1EBED" stroke-width="0.666667" stroke-miterlimit="10"/>
<path d="M1795.75 135.75C1810.35 132.28 1824.94 128.795 1840.58 102.895C1835.03 95.3313 1827.67 89.3249 1819.26 85.3905C1818.02 115.724 1806.89 125.744 1795.75 135.75Z" fill="#5A3C24"/>
<path d="M1795.75 135.75C1810.35 132.28 1824.94 128.795 1840.58 102.895C1835.03 95.3313 1827.67 89.3249 1819.26 85.3905C1818.02 115.724 1806.89 125.744 1795.75 135.75Z" stroke="#F1EBED" stroke-width="0.666667" stroke-miterlimit="10"/>
<path d="M1795.75 135.75C1809.16 140.629 1822.58 145.489 1850.82 128.248C1850.67 127.159 1850.49 126.07 1850.28 124.977C1848.65 116.719 1845.26 109.259 1840.58 102.895C1824.94 128.795 1810.35 132.28 1795.75 135.75Z" fill="#F68B9B"/>
<path d="M1795.75 135.75C1809.16 140.629 1822.58 145.489 1850.82 128.248C1850.67 127.159 1850.49 126.07 1850.28 124.977C1848.65 116.719 1845.26 109.259 1840.58 102.895C1824.94 128.795 1810.35 132.28 1795.75 135.75Z" stroke="#F1EBED" stroke-width="0.666667" stroke-miterlimit="10"/>
<path d="M1795.75 135.751C1784.61 145.757 1773.48 155.777 1772.25 186.113C1781.64 190.506 1792.33 192.314 1803.25 190.816C1786.01 162.586 1790.87 149.162 1795.75 135.751Z" fill="#F68B9B"/>
<path d="M1795.75 135.751C1784.61 145.757 1773.48 155.777 1772.25 186.113C1781.64 190.506 1792.33 192.314 1803.25 190.816C1786.01 162.586 1790.87 149.162 1795.75 135.751Z" stroke="#F1EBED" stroke-width="0.666667" stroke-miterlimit="10"/>
<path d="M1795.75 135.752C1799.22 150.346 1802.71 164.94 1828.61 180.584C1836.17 175.035 1842.18 167.67 1846.11 159.256C1815.78 158.018 1805.76 146.889 1795.75 135.752Z" fill="#F68B9B"/>
<path d="M1795.75 135.752C1799.22 150.346 1802.71 164.94 1828.61 180.584C1836.17 175.035 1842.18 167.67 1846.11 159.256C1815.78 158.018 1805.76 146.889 1795.75 135.752Z" stroke="#F1EBED" stroke-width="0.666667" stroke-miterlimit="10"/>
<path d="M1795.75 135.75C1782.34 130.871 1768.92 126.012 1740.69 143.254C1740.84 144.342 1741.01 145.433 1741.22 146.524C1742.85 154.783 1746.25 162.242 1750.92 168.607C1766.56 142.707 1781.16 139.221 1795.75 135.75Z" fill="#F68B9B"/>
<path d="M1795.75 135.75C1782.34 130.871 1768.92 126.012 1740.69 143.254C1740.84 144.342 1741.01 145.433 1741.22 146.524C1742.85 154.783 1746.25 162.242 1750.92 168.607C1766.56 142.707 1781.16 139.221 1795.75 135.75Z" stroke="#F1EBED" stroke-width="0.666667" stroke-miterlimit="10"/>
<path d="M1795.75 135.75C1806.89 125.744 1818.02 115.724 1819.26 85.3905C1809.86 80.9955 1799.17 79.1873 1788.25 80.6848C1805.49 108.917 1800.63 122.339 1795.75 135.75Z" fill="#F68B9B"/>
<path d="M1795.75 135.75C1806.89 125.744 1818.02 115.724 1819.26 85.3905C1809.86 80.9955 1799.17 79.1873 1788.25 80.6848C1805.49 108.917 1800.63 122.339 1795.75 135.75Z" stroke="#F1EBED" stroke-width="0.666667" stroke-miterlimit="10"/>
<path d="M1795.75 135.75C1792.28 121.156 1788.8 106.562 1762.89 90.9164C1755.33 96.4675 1749.33 103.832 1745.39 112.245C1775.72 113.484 1785.74 124.613 1795.75 135.75Z" fill="#F68B9B"/>
<path d="M1795.75 135.75C1792.28 121.156 1788.8 106.562 1762.89 90.9164C1755.33 96.4675 1749.33 103.832 1745.39 112.245C1775.72 113.484 1785.74 124.613 1795.75 135.75Z" stroke="#F1EBED" stroke-width="0.666667" stroke-miterlimit="10"/>
<g opacity="0.580002">
<g opacity="0.580002">
<path opacity="0.580002" d="M1758.03 142.008C1758.11 142.494 1758.2 142.976 1758.3 143.455" stroke="#F68B9B" stroke-width="14.6667" stroke-miterlimit="10" stroke-linecap="round" stroke-linejoin="round"/>
</g>
</g>
<g opacity="0.580002">
<g opacity="0.580002">
<path opacity="0.580002" d="M1822.27 108.217C1815.4 101.594 1806.05 97.5226 1795.75 97.5226C1780.67 97.5226 1767.63 106.257 1761.41 118.941" stroke="#F68B9B" stroke-width="14.6667" stroke-miterlimit="10" stroke-linecap="round" stroke-linejoin="round"/>
</g>
</g>
</g>
<g opacity="0.2">
<path d="M2039.19 935.905C2038.67 932.111 2038.07 928.305 2037.32 924.494C2031.63 895.686 2019.8 869.664 2003.49 847.453C1984.14 821.073 1958.44 800.119 1929.09 786.384C1896.31 771.058 1859.01 764.744 1820.9 769.974C1817.11 770.493 1813.31 771.092 1809.5 771.848C1780.69 777.539 1754.66 789.371 1732.46 805.672C1706.07 825.029 1685.12 850.728 1671.39 880.078C1656.06 912.852 1649.74 950.159 1654.97 988.261C1655.49 992.055 1656.09 995.861 1656.85 999.672C1662.54 1028.48 1674.37 1054.5 1690.67 1076.71C1710.03 1103.1 1735.73 1124.05 1765.08 1137.78C1797.86 1153.11 1835.16 1159.42 1873.26 1154.19C1877.06 1153.67 1880.86 1153.07 1884.67 1152.32C1913.48 1146.63 1939.5 1134.8 1961.71 1118.49C1988.1 1099.14 2009.05 1073.44 2022.78 1044.09C2038.11 1011.31 2044.42 974.002 2039.19 935.905" fill="#F68B9B"/>
<path d="M2028.03 924.739C2027.51 920.945 2026.91 917.145 2026.15 913.334C2020.46 884.52 2008.63 858.498 1992.33 836.293C1972.97 809.907 1947.27 788.953 1917.92 775.218C1885.14 759.892 1847.84 753.578 1809.74 758.808C1805.94 759.327 1802.14 759.926 1798.33 760.682C1769.52 766.373 1743.5 778.205 1721.29 794.506C1694.9 813.868 1673.95 839.562 1660.22 868.917C1644.89 901.692 1638.58 938.999 1643.81 977.095C1644.33 980.889 1644.93 984.695 1645.68 988.506C1651.37 1017.31 1663.2 1043.34 1679.51 1065.55C1698.86 1091.93 1724.56 1112.89 1753.91 1126.62C1786.69 1141.94 1823.99 1148.26 1862.1 1143.03C1865.89 1142.51 1869.69 1141.91 1873.5 1141.15C1902.31 1135.46 1928.34 1123.63 1950.54 1107.33C1976.93 1087.97 1997.88 1062.27 2011.61 1032.92C2026.94 1000.15 2033.26 962.841 2028.03 924.739" fill="#FEF4E8"/>
<path d="M1835.92 950.915C1820.34 993.717 1804.83 1036.57 1859.86 1126.68C1863.34 1126.21 1866.82 1125.66 1870.31 1124.97C1896.66 1119.76 1920.48 1108.94 1940.79 1094.02C1858.12 1044.08 1846.99 997.5 1835.92 950.915Z" fill="#5A3C24"/>
<path d="M1835.92 950.915C1820.34 993.717 1804.83 1036.57 1859.86 1126.68C1863.34 1126.21 1866.82 1125.66 1870.31 1124.97C1896.66 1119.76 1920.48 1108.94 1940.79 1094.02C1858.12 1044.08 1846.99 997.5 1835.92 950.915Z" stroke="#F1EBED" stroke-width="0.666667" stroke-miterlimit="10"/>
<path d="M1835.92 950.913C1789.33 961.989 1742.74 973.118 1692.81 1055.79C1710.52 1079.93 1734.04 1099.1 1760.89 1111.67C1764.84 1014.84 1800.37 982.851 1835.92 950.913Z" fill="#5A3C24"/>
<path d="M1835.92 950.913C1789.33 961.989 1742.74 973.118 1692.81 1055.79C1710.52 1079.93 1734.04 1099.1 1760.89 1111.67C1764.84 1014.84 1800.37 982.851 1835.92 950.913Z" stroke="#F1EBED" stroke-width="0.666667" stroke-miterlimit="10"/>
<path d="M1835.92 950.913C1867.85 986.461 1899.84 1021.99 1996.66 1025.94C2010.69 995.958 2016.46 961.822 2011.68 926.966C1921.57 981.998 1878.72 966.487 1835.92 950.913Z" fill="#5A3C24"/>
<path d="M1835.92 950.913C1867.85 986.461 1899.84 1021.99 1996.66 1025.94C2010.69 995.958 2016.46 961.822 2011.68 926.966C1921.57 981.998 1878.72 966.487 1835.92 950.913Z" stroke="#F1EBED" stroke-width="0.666667" stroke-miterlimit="10"/>
<path d="M1835.91 950.915C1803.98 915.367 1771.99 879.842 1675.17 875.886C1661.14 905.876 1655.37 940.005 1660.15 974.867C1750.26 919.83 1793.11 935.341 1835.91 950.915Z" fill="#5A3C24"/>
<path d="M1835.91 950.915C1803.98 915.367 1771.99 879.842 1675.17 875.886C1661.14 905.876 1655.37 940.005 1660.15 974.867C1750.26 919.83 1793.11 935.341 1835.91 950.915Z" stroke="#F1EBED" stroke-width="0.666667" stroke-miterlimit="10"/>
<path d="M1835.92 950.912C1851.49 908.105 1867 865.262 1811.96 775.144C1808.49 775.623 1805.01 776.17 1801.53 776.856C1775.17 782.069 1751.36 792.892 1731.04 807.803C1813.72 857.743 1824.84 904.328 1835.92 950.912Z" fill="#5A3C24"/>
<path d="M1835.92 950.912C1851.49 908.105 1867 865.262 1811.96 775.144C1808.49 775.623 1805.01 776.17 1801.53 776.856C1775.17 782.069 1751.36 792.892 1731.04 807.803C1813.72 857.743 1824.84 904.328 1835.92 950.912Z" stroke="#F1EBED" stroke-width="0.666667" stroke-miterlimit="10"/>
<path d="M1835.92 950.912C1882.5 939.835 1929.09 928.713 1979.03 846.038C1961.31 821.896 1937.8 802.723 1910.95 790.165C1906.99 886.989 1871.46 918.974 1835.92 950.912Z" fill="#5A3C24"/>
<path d="M1835.92 950.912C1882.5 939.835 1929.09 928.713 1979.03 846.038C1961.31 821.896 1937.8 802.723 1910.95 790.165C1906.99 886.989 1871.46 918.974 1835.92 950.912Z" stroke="#F1EBED" stroke-width="0.666667" stroke-miterlimit="10"/>
<path d="M1835.92 950.915C1878.72 966.49 1921.57 982 2011.68 926.969C2011.21 923.492 2010.66 920.015 2009.97 916.526C2004.76 890.169 1993.94 866.355 1979.03 846.041C1929.09 928.716 1882.5 939.839 1835.92 950.915Z" fill="#F68B9B"/>
<path d="M1835.92 950.915C1878.72 966.49 1921.57 982 2011.68 926.969C2011.21 923.492 2010.66 920.015 2009.97 916.526C2004.76 890.169 1993.94 866.355 1979.03 846.041C1929.09 928.716 1882.5 939.839 1835.92 950.915Z" stroke="#F1EBED" stroke-width="0.666667" stroke-miterlimit="10"/>
<path d="M1835.92 950.918C1800.37 982.856 1764.84 1014.84 1760.89 1111.67C1790.87 1125.69 1825.01 1131.47 1859.86 1126.69C1804.83 1036.57 1820.34 993.725 1835.92 950.918Z" fill="#F68B9B"/>
<path d="M1835.92 950.918C1800.37 982.856 1764.84 1014.84 1760.89 1111.67C1790.87 1125.69 1825.01 1131.47 1859.86 1126.69C1804.83 1036.57 1820.34 993.725 1835.92 950.918Z" stroke="#F1EBED" stroke-width="0.666667" stroke-miterlimit="10"/>
<path d="M1835.92 950.918C1846.99 997.503 1858.12 1044.09 1940.79 1094.02C1964.93 1076.31 1984.11 1052.8 1996.66 1025.94C1899.84 1021.99 1867.86 986.466 1835.92 950.918Z" fill="#F68B9B"/>
<path d="M1835.92 950.918C1846.99 997.503 1858.12 1044.09 1940.79 1094.02C1964.93 1076.31 1984.11 1052.8 1996.66 1025.94C1899.84 1021.99 1867.86 986.466 1835.92 950.918Z" stroke="#F1EBED" stroke-width="0.666667" stroke-miterlimit="10"/>
<path d="M1835.92 950.913C1793.11 935.339 1750.26 919.828 1660.15 974.866C1660.63 978.337 1661.18 981.82 1661.86 985.302C1667.07 1011.66 1677.9 1035.47 1692.81 1055.79C1742.74 973.119 1789.33 961.99 1835.92 950.913Z" fill="#F68B9B"/>
<path d="M1835.92 950.913C1793.11 935.339 1750.26 919.828 1660.15 974.866C1660.63 978.337 1661.18 981.82 1661.86 985.302C1667.07 1011.66 1677.9 1035.47 1692.81 1055.79C1742.74 973.119 1789.33 961.99 1835.92 950.913Z" stroke="#F1EBED" stroke-width="0.666667" stroke-miterlimit="10"/>
<path d="M1835.92 950.912C1871.47 918.974 1906.99 886.989 1910.95 790.165C1880.96 776.136 1846.83 770.364 1811.96 775.144C1867 865.262 1851.49 908.105 1835.92 950.912Z" fill="#F68B9B"/>
<path d="M1835.92 950.912C1871.47 918.974 1906.99 886.989 1910.95 790.165C1880.96 776.136 1846.83 770.364 1811.96 775.144C1867 865.262 1851.49 908.105 1835.92 950.912Z" stroke="#F1EBED" stroke-width="0.666667" stroke-miterlimit="10"/>
<path d="M1835.91 950.912C1824.84 904.328 1813.71 857.743 1731.04 807.803C1706.9 825.522 1687.73 849.031 1675.17 875.884C1771.99 879.839 1803.98 915.364 1835.91 950.912Z" fill="#F68B9B"/>
<path d="M1835.91 950.912C1824.84 904.328 1813.71 857.743 1731.04 807.803C1706.9 825.522 1687.73 849.031 1675.17 875.884C1771.99 879.839 1803.98 915.364 1835.91 950.912Z" stroke="#F1EBED" stroke-width="0.666667" stroke-miterlimit="10"/>
<g opacity="0.580002">
<g opacity="0.580002">
<path opacity="0.580002" d="M1715.52 970.889C1715.77 972.44 1716.06 973.98 1716.37 975.508" stroke="#F68B9B" stroke-width="14.6667" stroke-miterlimit="10" stroke-linecap="round" stroke-linejoin="round"/>
</g>
</g>
<g opacity="0.580002">
<g opacity="0.580002">
<path opacity="0.580002" d="M1920.57 863.028C1898.63 841.89 1868.79 828.893 1835.92 828.893C1787.78 828.893 1746.15 856.772 1726.29 897.262" stroke="#F68B9B" stroke-width="14.6667" stroke-miterlimit="10" stroke-linecap="round" stroke-linejoin="round"/>
</g>
</g>
</g>
</g>
<defs>
<filter id="filter0_d" x="-86" y="0" width="2131" height="1164" filterUnits="userSpaceOnUse" color-interpolation-filters="sRGB">
<feFlood flood-opacity="0" result="BackgroundImageFix"/>
<feColorMatrix in="SourceAlpha" type="matrix" values="0 0 0 0 0 0 0 0 0 0 0 0 0 0 0 0 0 0 127 0" result="hardAlpha"/>
<feOffset dy="4"/>
<feGaussianBlur stdDeviation="2"/>
<feComposite in2="hardAlpha" operator="out"/>
<feColorMatrix type="matrix" values="0 0 0 0 0 0 0 0 0 0 0 0 0 0 0 0 0 0 0.25 0"/>
<feBlend mode="normal" in2="BackgroundImageFix" result="effect1_dropShadow"/>
<feBlend mode="normal" in="SourceGraphic" in2="effect1_dropShadow" result="shape"/>
</filter>
</defs>
</svg>
