<svg width="201" height="155" viewBox="0 0 201 155" fill="none" xmlns="http://www.w3.org/2000/svg">
<path d="M145.845 41.3699C145.725 40.4926 145.587 39.6126 145.412 38.7313C144.096 32.0699 141.36 26.0526 137.591 20.9166C133.115 14.8166 127.172 9.97127 120.385 6.79527C112.807 3.25127 104.18 1.79126 95.3693 3.0006C94.492 3.1206 93.6133 3.25926 92.732 3.43393C86.0693 4.74993 80.052 7.48593 74.9173 11.2553C68.816 15.7313 63.9707 21.6739 60.796 28.4606C57.2507 36.0393 55.7907 44.6659 57 53.4766C57.12 54.3539 57.2587 55.2339 57.4333 56.1153C58.7493 62.7766 61.4853 68.7939 65.2547 73.9299C69.732 80.0313 75.6733 84.8753 82.4613 88.0513C90.04 91.5953 98.6667 93.0553 107.476 91.8459C108.355 91.7259 109.233 91.5873 110.115 91.4126C116.776 90.0966 122.793 87.3606 127.929 83.5913C134.031 79.1153 138.876 73.1726 142.051 66.3859C145.595 58.8073 147.055 50.1793 145.845 41.3699" fill="#F68B9B"/>
<path d="M143.263 38.7872C143.143 37.9098 143.005 37.0312 142.83 36.1498C141.514 29.4872 138.778 23.4698 135.009 18.3352C130.531 12.2338 124.59 7.3885 117.802 4.2125C110.223 0.668501 101.597 -0.7915 92.7873 0.417834C91.9086 0.537834 91.03 0.676496 90.1486 0.851163C83.4873 2.16716 77.47 4.90316 72.334 8.6725C66.2327 13.1498 61.3873 19.0912 58.2127 25.8792C54.6687 33.4578 53.2087 42.0845 54.418 50.8938C54.538 51.7712 54.6767 52.6512 54.8513 53.5325C56.1673 60.1938 58.9033 66.2112 62.6727 71.3472C67.1487 77.4485 73.0913 82.2938 79.878 85.4685C87.4567 89.0125 96.0833 90.4725 104.894 89.2632C105.771 89.1432 106.65 89.0045 107.531 88.8298C114.194 87.5138 120.211 84.7778 125.346 81.0085C131.447 76.5325 136.293 70.5898 139.467 63.8032C143.013 56.2245 144.473 47.5978 143.263 38.7872" fill="#FEF4E8"/>
<path d="M98.8406 44.8412C95.2393 54.7386 91.6526 64.6466 104.378 85.4852C105.182 85.3746 105.986 85.2479 106.793 85.0892C112.887 83.8839 118.394 81.3812 123.091 77.9319C103.974 66.3852 101.402 55.6132 98.8406 44.8412Z" fill="#5A3C24"/>
<path d="M98.8406 44.8412C95.2393 54.7386 91.6526 64.6466 104.378 85.4852C105.182 85.3746 105.986 85.2479 106.793 85.0892C112.887 83.8839 118.394 81.3812 123.091 77.9319C103.974 66.3852 101.402 55.6132 98.8406 44.8412Z" stroke="#F1EBED" stroke-width="0.666667" stroke-miterlimit="10"/>
<path d="M98.8407 44.8406C88.0687 47.4019 77.2953 49.9752 65.7487 69.0926C69.8447 74.6739 75.282 79.1072 81.4913 82.0126C82.406 59.6219 90.6207 52.2259 98.8407 44.8406Z" fill="#5A3C24"/>
<path d="M98.8407 44.8406C88.0687 47.4019 77.2953 49.9752 65.7487 69.0926C69.8447 74.6739 75.282 79.1072 81.4913 82.0126C82.406 59.6219 90.6207 52.2259 98.8407 44.8406Z" stroke="#F1EBED" stroke-width="0.666667" stroke-miterlimit="10"/>
<path d="M98.8407 44.8406C106.226 53.0606 113.622 61.2753 136.011 62.1899C139.255 55.2566 140.59 47.3633 139.485 39.3033C118.646 52.0286 108.739 48.4419 98.8407 44.8406Z" fill="#5A3C24"/>
<path d="M98.8407 44.8406C106.226 53.0606 113.622 61.2753 136.011 62.1899C139.255 55.2566 140.59 47.3633 139.485 39.3033C118.646 52.0286 108.739 48.4419 98.8407 44.8406Z" stroke="#F1EBED" stroke-width="0.666667" stroke-miterlimit="10"/>
<path d="M98.84 44.8406C91.4547 36.6206 84.0587 28.4059 61.6694 27.4913C58.4254 34.4259 57.0907 42.3179 58.196 50.3793C79.0347 37.6526 88.9427 41.2393 98.84 44.8406Z" fill="#5A3C24"/>
<path d="M98.84 44.8406C91.4547 36.6206 84.0587 28.4059 61.6694 27.4913C58.4254 34.4259 57.0907 42.3179 58.196 50.3793C79.0347 37.6526 88.9427 41.2393 98.84 44.8406Z" stroke="#F1EBED" stroke-width="0.666667" stroke-miterlimit="10"/>
<path d="M98.8406 44.8406C102.442 34.9419 106.029 25.0352 93.302 4.19658C92.4993 4.30725 91.694 4.43391 90.8886 4.59258C84.7926 5.79791 79.2873 8.30058 74.5886 11.7486C93.7073 23.2966 96.2793 34.0686 98.8406 44.8406Z" fill="#5A3C24"/>
<path d="M98.8406 44.8406C102.442 34.9419 106.029 25.0352 93.302 4.19658C92.4993 4.30725 91.694 4.43391 90.8886 4.59258C84.7926 5.79791 79.2873 8.30058 74.5886 11.7486C93.7073 23.2966 96.2793 34.0686 98.8406 44.8406Z" stroke="#F1EBED" stroke-width="0.666667" stroke-miterlimit="10"/>
<path d="M98.8407 44.8406C109.613 42.2792 120.385 39.7072 131.933 20.5899C127.835 15.0072 122.399 10.5739 116.19 7.66991C115.275 30.0592 107.061 37.4552 98.8407 44.8406Z" fill="#5A3C24"/>
<path d="M98.8407 44.8406C109.613 42.2792 120.385 39.7072 131.933 20.5899C127.835 15.0072 122.399 10.5739 116.19 7.66991C115.275 30.0592 107.061 37.4552 98.8407 44.8406Z" stroke="#F1EBED" stroke-width="0.666667" stroke-miterlimit="10"/>
<path d="M98.8407 44.8405C108.739 48.4419 118.646 52.0285 139.485 39.3032C139.374 38.4992 139.247 37.6952 139.089 36.8885C137.883 30.7939 135.381 25.2872 131.933 20.5899C120.385 39.7072 109.613 42.2792 98.8407 44.8405Z" fill="#F68B9B"/>
<path d="M98.8407 44.8405C108.739 48.4419 118.646 52.0285 139.485 39.3032C139.374 38.4992 139.247 37.6952 139.089 36.8885C137.883 30.7939 135.381 25.2872 131.933 20.5899C120.385 39.7072 109.613 42.2792 98.8407 44.8405Z" stroke="#F1EBED" stroke-width="0.666667" stroke-miterlimit="10"/>
<path d="M98.8407 44.8405C90.6207 52.2258 82.406 59.6218 81.4913 82.0125C88.4247 85.2552 96.318 86.5898 104.378 85.4845C91.6527 64.6472 95.2393 54.7392 98.8407 44.8405Z" fill="#F68B9B"/>
<path d="M98.8407 44.8405C90.6207 52.2258 82.406 59.6218 81.4913 82.0125C88.4247 85.2552 96.318 86.5898 104.378 85.4845C91.6527 64.6472 95.2393 54.7392 98.8407 44.8405Z" stroke="#F1EBED" stroke-width="0.666667" stroke-miterlimit="10"/>
<path d="M98.8407 44.8412C101.402 55.6132 103.974 66.3852 123.091 77.9319C128.674 73.8359 133.107 68.3999 136.011 62.1892C113.622 61.2759 106.226 53.0612 98.8407 44.8412Z" fill="#F68B9B"/>
<path d="M98.8407 44.8412C101.402 55.6132 103.974 66.3852 123.091 77.9319C128.674 73.8359 133.107 68.3999 136.011 62.1892C113.622 61.2759 106.226 53.0612 98.8407 44.8412Z" stroke="#F1EBED" stroke-width="0.666667" stroke-miterlimit="10"/>
<path d="M98.8407 44.8405C88.942 41.2392 79.034 37.6525 58.1967 50.3792C58.3073 51.1819 58.434 51.9872 58.5927 52.7925C59.7967 58.8885 62.3007 64.3939 65.7487 69.0925C77.2953 49.9752 88.0687 47.4019 98.8407 44.8405Z" fill="#F68B9B"/>
<path d="M98.8407 44.8405C88.942 41.2392 79.034 37.6525 58.1967 50.3792C58.3073 51.1819 58.434 51.9872 58.5927 52.7925C59.7967 58.8885 62.3007 64.3939 65.7487 69.0925C77.2953 49.9752 88.0687 47.4019 98.8407 44.8405Z" stroke="#F1EBED" stroke-width="0.666667" stroke-miterlimit="10"/>
<path d="M98.8407 44.8406C107.061 37.4552 115.275 30.0592 116.19 7.66991C109.255 4.42591 101.363 3.09124 93.302 4.19658C106.029 25.0352 102.442 34.9419 98.8407 44.8406Z" fill="#F68B9B"/>
<path d="M98.8407 44.8406C107.061 37.4552 115.275 30.0592 116.19 7.66991C109.255 4.42591 101.363 3.09124 93.302 4.19658C106.029 25.0352 102.442 34.9419 98.8407 44.8406Z" stroke="#F1EBED" stroke-width="0.666667" stroke-miterlimit="10"/>
<path d="M98.84 44.8406C96.28 34.0686 93.7066 23.2966 74.5893 11.7486C69.0066 15.8459 64.5733 21.2819 61.6693 27.4912C84.0586 28.4059 91.4546 36.6206 98.84 44.8406Z" fill="#F68B9B"/>
<path d="M98.84 44.8406C96.28 34.0686 93.7066 23.2966 74.5893 11.7486C69.0066 15.8459 64.5733 21.2819 61.6693 27.4912C84.0586 28.4059 91.4546 36.6206 98.84 44.8406Z" stroke="#F1EBED" stroke-width="0.666667" stroke-miterlimit="10"/>
<g opacity="0.580002">
<g opacity="0.580002">
<path opacity="0.580002" d="M70.9995 49.4603C71.0582 49.819 71.1248 50.175 71.1968 50.5283" stroke="#F68B9B" stroke-width="14.6667" stroke-miterlimit="10" stroke-linecap="round" stroke-linejoin="round"/>
</g>
</g>
<g opacity="0.580002">
<g opacity="0.580002">
<path opacity="0.580002" d="M118.416 24.5183C113.342 19.6303 106.442 16.625 98.8409 16.625C87.7089 16.625 78.0822 23.0717 73.4902 32.4343" stroke="#F68B9B" stroke-width="14.6667" stroke-miterlimit="10" stroke-linecap="round" stroke-linejoin="round"/>
</g>
</g>
<path d="M4.58594 125.188C4.58594 128 4.90625 130.453 5.54688 132.547C6.1875 134.641 7.03125 136.383 8.07812 137.773C9.14062 139.164 10.3438 140.211 11.6875 140.914C13.0469 141.602 14.4375 141.945 15.8594 141.945C16.875 141.945 17.875 141.758 18.8594 141.383C19.8594 141.008 20.8281 140.445 21.7656 139.695C22.7031 138.945 23.6016 138.008 24.4609 136.883C25.3359 135.758 26.1484 134.438 26.8984 132.922L27.1562 132.43L28.1172 133.156L27.8594 133.648C27 135.383 26.0469 136.906 25 138.219C23.9688 139.531 22.8672 140.633 21.6953 141.523C20.5234 142.398 19.3047 143.062 18.0391 143.516C16.7891 143.969 15.5078 144.195 14.1953 144.195C13.0703 144.195 11.9531 144.031 10.8438 143.703C9.75 143.391 8.70312 142.914 7.70312 142.273C6.71875 141.617 5.79688 140.797 4.9375 139.812C4.09375 138.828 3.35938 137.68 2.73438 136.367C2.10938 135.039 1.61719 133.547 1.25781 131.891C0.914062 130.219 0.742188 128.383 0.742188 126.383C0.742188 123.742 0.960938 121.352 1.39844 119.211C1.85156 117.055 2.45312 115.141 3.20312 113.469C3.96875 111.781 4.85156 110.32 5.85156 109.086C6.86719 107.852 7.92969 106.836 9.03906 106.039C10.1484 105.227 11.2812 104.625 12.4375 104.234C13.5938 103.844 14.7031 103.648 15.7656 103.648C17.1562 103.648 18.4375 103.891 19.6094 104.375C20.7812 104.844 21.7891 105.516 22.6328 106.391C23.4766 107.25 24.1328 108.305 24.6016 109.555C25.0859 110.789 25.3281 112.164 25.3281 113.68C25.3281 115.133 25.1016 116.5 24.6484 117.781C24.2109 119.062 23.6172 120.188 22.8672 121.156C22.1328 122.109 21.2812 122.867 20.3125 123.43C19.3594 123.992 18.3594 124.273 17.3125 124.273C16.6094 124.273 15.9531 124.148 15.3438 123.898C14.7344 123.648 14.2031 123.297 13.75 122.844C13.2969 122.391 12.9375 121.836 12.6719 121.18C12.4062 120.523 12.2734 119.797 12.2734 119C12.2734 118.234 12.3906 117.5 12.625 116.797C12.8594 116.078 13.1562 115.422 13.5156 114.828C13.875 114.219 14.2656 113.688 14.6875 113.234C15.125 112.766 15.5469 112.398 15.9531 112.133L16.5859 112.766C16.2578 113.141 15.9453 113.547 15.6484 113.984C15.3672 114.406 15.1172 114.867 14.8984 115.367C14.6797 115.852 14.5078 116.375 14.3828 116.938C14.2578 117.5 14.1953 118.109 14.1953 118.766C14.1953 119.438 14.2734 120.039 14.4297 120.57C14.6016 121.102 14.8281 121.555 15.1094 121.93C15.4062 122.305 15.7422 122.594 16.1172 122.797C16.4922 122.984 16.8906 123.078 17.3125 123.078C17.8906 123.078 18.4688 122.867 19.0469 122.445C19.625 122.008 20.1406 121.375 20.5938 120.547C21.0469 119.703 21.4141 118.672 21.6953 117.453C21.9766 116.234 22.1172 114.828 22.1172 113.234C22.1172 111.797 21.9531 110.555 21.625 109.508C21.3125 108.445 20.875 107.57 20.3125 106.883C19.75 106.195 19.0859 105.688 18.3203 105.359C17.5547 105.016 16.7344 104.844 15.8594 104.844C15.2344 104.844 14.5234 104.984 13.7266 105.266C12.9297 105.531 12.1094 105.977 11.2656 106.602C10.4375 107.227 9.625 108.055 8.82812 109.086C8.03125 110.102 7.3125 111.367 6.67188 112.883C6.04688 114.383 5.53906 116.148 5.14844 118.18C4.77344 120.211 4.58594 122.547 4.58594 125.188ZM41.3594 137.188C41.3594 138.078 41.4375 138.828 41.5938 139.438C41.75 140.047 42.0234 140.352 42.4141 140.352C42.6484 140.352 42.8984 140.242 43.1641 140.023C43.4453 139.789 43.7656 139.414 44.125 138.898C44.4844 138.383 44.8906 137.719 45.3438 136.906C45.8125 136.078 46.3438 135.07 46.9375 133.883L47.6406 132.43L48.6016 133.156L47.8984 134.609C47.2422 135.922 46.625 137.102 46.0469 138.148C45.4844 139.18 44.9453 140.055 44.4297 140.773C43.9141 141.492 43.4062 142.047 42.9062 142.438C42.4219 142.812 41.9375 143 41.4531 143C40.9375 143 40.5 142.859 40.1406 142.578C39.7969 142.297 39.5078 141.914 39.2734 141.43C39.0391 140.93 38.8594 140.359 38.7344 139.719C38.6094 139.062 38.5234 138.367 38.4766 137.633C38.1016 138.383 37.6875 139.086 37.2344 139.742C36.7812 140.383 36.3047 140.945 35.8047 141.43C35.3203 141.914 34.8125 142.297 34.2812 142.578C33.75 142.859 33.2188 143 32.6875 143C31.9062 143 31.1484 142.836 30.4141 142.508C29.6797 142.18 29.0234 141.68 28.4453 141.008C27.8828 140.336 27.4297 139.492 27.0859 138.477C26.7422 137.445 26.5703 136.234 26.5703 134.844C26.5703 133.219 26.7812 131.734 27.2031 130.391C27.625 129.031 28.1953 127.867 28.9141 126.898C29.6328 125.914 30.4609 125.156 31.3984 124.625C32.3359 124.078 33.3203 123.805 34.3516 123.805C34.9766 123.805 35.5547 123.945 36.0859 124.227C36.6172 124.508 37.0781 124.852 37.4688 125.258C37.875 125.648 38.2109 126.07 38.4766 126.523C38.7422 126.961 38.9219 127.336 39.0156 127.648L39.2969 125.375C39.3281 125.078 39.4688 124.828 39.7188 124.625C39.9844 124.422 40.2734 124.266 40.5859 124.156C40.8984 124.031 41.2031 123.945 41.5 123.898C41.7969 123.836 42.0078 123.805 42.1328 123.805C42.3203 123.805 42.4453 123.836 42.5078 123.898C42.5703 123.961 42.6016 124.086 42.6016 124.273C42.6016 124.508 42.5312 124.984 42.3906 125.703C42.2656 126.406 42.125 127.312 41.9688 128.422C41.8281 129.516 41.6875 130.805 41.5469 132.289C41.4219 133.773 41.3594 135.406 41.3594 137.188ZM38.7812 131C38.7812 130.281 38.6719 129.578 38.4531 128.891C38.2344 128.188 37.9375 127.57 37.5625 127.039C37.1875 126.492 36.75 126.055 36.25 125.727C35.7656 125.398 35.25 125.234 34.7031 125.234C34.0312 125.234 33.3984 125.43 32.8047 125.82C32.2266 126.195 31.7188 126.734 31.2812 127.438C30.8594 128.125 30.5234 128.961 30.2734 129.945C30.0234 130.914 29.8984 131.984 29.8984 133.156C29.8984 135.5 30.2656 137.289 31 138.523C31.7344 139.742 32.7109 140.352 33.9297 140.352C34.4609 140.352 35.0078 140.141 35.5703 139.719C36.1484 139.281 36.6719 138.664 37.1406 137.867C37.625 137.055 38.0156 136.07 38.3125 134.914C38.625 133.758 38.7812 132.453 38.7812 131ZM56.6641 125.422C56.2266 125.422 55.7344 125.617 55.1875 126.008C54.6562 126.398 54.1172 126.906 53.5703 127.531C53.0234 128.141 52.4922 128.828 51.9766 129.594C51.4766 130.359 51.0391 131.117 50.6641 131.867C50.6172 133.242 50.5703 134.742 50.5234 136.367C50.4922 137.992 50.4766 139.727 50.4766 141.57C50.4766 141.805 50.3672 142.016 50.1484 142.203C49.9453 142.375 49.7031 142.523 49.4219 142.648C49.1406 142.758 48.8516 142.844 48.5547 142.906C48.2578 142.969 48.0156 143 47.8281 143C47.5938 143 47.375 142.93 47.1719 142.789C46.9688 142.648 46.8672 142.336 46.8672 141.852C46.8672 141.617 46.8906 141.328 46.9375 140.984C46.9844 140.625 47.0469 140.242 47.125 139.836C47.1875 139.43 47.2656 139.016 47.3594 138.594C47.4375 138.156 47.5156 137.75 47.5938 137.375V125.914C47.5938 125.602 47.6016 125.359 47.6172 125.188C47.6172 125 47.6406 124.859 47.6875 124.766C47.7812 124.547 47.9453 124.375 48.1797 124.25C48.4141 124.125 48.6641 124.031 48.9297 123.969C49.1953 123.891 49.4531 123.844 49.7031 123.828C49.9531 123.812 50.1484 123.805 50.2891 123.805C50.5547 123.805 50.7344 123.875 50.8281 124.016C50.9375 124.156 50.9922 124.406 50.9922 124.766C50.9922 124.719 50.9531 125.102 50.875 125.914C50.8125 126.727 50.7578 127.891 50.7109 129.406C51.1797 128.672 51.6875 127.969 52.2344 127.297C52.7812 126.625 53.3516 126.031 53.9453 125.516C54.5391 125 55.1484 124.586 55.7734 124.273C56.4141 123.961 57.0625 123.805 57.7188 123.805C58.8906 123.805 59.75 124.18 60.2969 124.93C60.8438 125.664 61.1172 126.664 61.1172 127.93C61.1172 128.727 61.0625 129.617 60.9531 130.602C60.8594 131.57 60.7422 132.562 60.6016 133.578C60.4766 134.578 60.3594 135.562 60.25 136.531C60.1562 137.484 60.1094 138.359 60.1094 139.156C60.1094 140.188 60.4297 140.703 61.0703 140.703C61.2734 140.703 61.5078 140.602 61.7734 140.398C62.0547 140.18 62.3984 139.781 62.8047 139.203C63.2266 138.625 63.7266 137.836 64.3047 136.836C64.8828 135.82 65.5703 134.516 66.3672 132.922L66.6016 132.43L67.5625 133.156L67.3281 133.648C66.3906 135.523 65.5547 137.062 64.8203 138.266C64.1016 139.469 63.4453 140.422 62.8516 141.125C62.2578 141.828 61.7031 142.32 61.1875 142.602C60.6719 142.867 60.1562 143 59.6406 143C59.3125 143 58.9844 142.953 58.6562 142.859C58.3281 142.766 58.0391 142.602 57.7891 142.367C57.5391 142.133 57.3359 141.82 57.1797 141.43C57.0234 141.023 56.9453 140.508 56.9453 139.883C56.9453 138.945 57.0078 137.891 57.1328 136.719C57.2578 135.547 57.3984 134.375 57.5547 133.203C57.7109 132.031 57.8516 130.93 57.9766 129.898C58.1016 128.852 58.1641 128 58.1641 127.344C58.1641 126.766 58.0391 126.305 57.7891 125.961C57.5391 125.602 57.1641 125.422 56.6641 125.422ZM71.3828 143C70.4297 143 69.6016 142.797 68.8984 142.391C68.2109 141.984 67.6406 141.438 67.1875 140.75C66.7344 140.047 66.3984 139.242 66.1797 138.336C65.9609 137.43 65.8516 136.469 65.8516 135.453C65.8516 134.562 65.9375 133.656 66.1094 132.734C66.2812 131.812 66.5234 130.922 66.8359 130.062C67.1641 129.188 67.5703 128.375 68.0547 127.625C68.5391 126.859 69.0938 126.195 69.7188 125.633C70.3438 125.07 71.0391 124.625 71.8047 124.297C72.5859 123.969 73.4219 123.805 74.3125 123.805C75.3281 123.805 76.1875 124.031 76.8906 124.484C77.6094 124.938 78.1875 125.492 78.625 126.148C78.6406 123.195 78.7891 120.586 79.0703 118.32C79.3516 116.055 79.7422 114.156 80.2422 112.625C80.7578 111.094 81.3672 109.938 82.0703 109.156C82.7734 108.359 83.5469 107.961 84.3906 107.961C84.6875 107.961 84.9531 108 85.1875 108.078C85.4375 108.141 85.6406 108.266 85.7969 108.453C85.9688 108.641 86.0938 108.898 86.1719 109.227C86.2656 109.539 86.3125 109.945 86.3125 110.445C86.3125 111.477 86.2109 112.664 86.0078 114.008C85.8047 115.336 85.5156 116.789 85.1406 118.367C84.7656 119.93 84.3047 121.602 83.7578 123.383C83.2266 125.148 82.6328 126.984 81.9766 128.891C81.9922 130.562 82.0156 132.008 82.0469 133.227C82.0781 134.445 82.1172 135.477 82.1641 136.32C82.2266 137.164 82.2969 137.852 82.375 138.383C82.4688 138.914 82.5703 139.328 82.6797 139.625C82.8047 139.906 82.9453 140.102 83.1016 140.211C83.2734 140.305 83.4609 140.352 83.6641 140.352C84.0234 140.352 84.3828 140.195 84.7422 139.883C85.1172 139.555 85.5156 139.078 85.9375 138.453C86.3594 137.812 86.8125 137.031 87.2969 136.109C87.7969 135.188 88.3438 134.125 88.9375 132.922L89.1953 132.43L90.1562 133.156L89.8984 133.648C88.9922 135.477 88.1953 136.992 87.5078 138.195C86.8203 139.383 86.1875 140.336 85.6094 141.055C85.0469 141.773 84.5078 142.281 83.9922 142.578C83.4766 142.859 82.9375 143 82.375 143C81.8281 143 81.3516 142.867 80.9453 142.602C80.5547 142.32 80.2188 141.891 79.9375 141.312C79.6562 140.719 79.4297 139.969 79.2578 139.062C79.0859 138.141 78.9531 137.039 78.8594 135.758C78.3125 136.852 77.75 137.844 77.1719 138.734C76.5938 139.625 75.9922 140.391 75.3672 141.031C74.7578 141.656 74.1172 142.141 73.4453 142.484C72.7734 142.828 72.0859 143 71.3828 143ZM74.7812 125C73.9219 125 73.1719 125.266 72.5312 125.797C71.8906 126.312 71.3594 126.992 70.9375 127.836C70.5156 128.664 70.2031 129.602 70 130.648C69.7969 131.695 69.6953 132.742 69.6953 133.789C69.6953 134.648 69.7578 135.477 69.8828 136.273C70.0234 137.055 70.2266 137.75 70.4922 138.359C70.7734 138.969 71.1094 139.453 71.5 139.812C71.8906 140.172 72.3438 140.352 72.8594 140.352C73.3594 140.352 73.8438 140.227 74.3125 139.977C74.7969 139.727 75.2734 139.328 75.7422 138.781C76.2109 138.219 76.6875 137.5 77.1719 136.625C77.6562 135.734 78.1719 134.656 78.7188 133.391C78.6875 132.641 78.6641 131.844 78.6484 131C78.6328 130.141 78.625 129.227 78.625 128.258C78.2812 127.242 77.7578 126.445 77.0547 125.867C76.3672 125.289 75.6094 125 74.7812 125ZM84.625 111.312C84.625 110.594 84.5391 110.094 84.3672 109.812C84.2109 109.531 84.0234 109.391 83.8047 109.391C83.4297 109.391 83.125 109.758 82.8906 110.492C82.6562 111.211 82.4688 112.188 82.3281 113.422C82.2031 114.656 82.1094 116.086 82.0469 117.711C82 119.336 81.9766 121.047 81.9766 122.844V125.422C82.4609 123.844 82.875 122.422 83.2188 121.156C83.5625 119.891 83.8359 118.711 84.0391 117.617C84.2422 116.523 84.3906 115.469 84.4844 114.453C84.5781 113.438 84.625 112.391 84.625 111.312ZM90.6953 124.461C90.7578 124.305 90.9062 124.18 91.1406 124.086C91.375 123.992 91.625 123.93 91.8906 123.898C92.1562 123.852 92.4062 123.828 92.6406 123.828C92.875 123.812 93.0312 123.805 93.1094 123.805C93.3438 123.805 93.4922 123.867 93.5547 123.992C93.6328 124.102 93.6719 124.281 93.6719 124.531C93.6719 124.656 93.6328 124.938 93.5547 125.375C93.4766 125.797 93.375 126.328 93.25 126.969C93.1406 127.609 93.0156 128.336 92.875 129.148C92.75 129.961 92.625 130.797 92.5 131.656C92.3906 132.516 92.2969 133.391 92.2188 134.281C92.1406 135.156 92.1016 135.984 92.1016 136.766C92.1016 138.125 92.3281 139.148 92.7812 139.836C93.2344 140.508 93.7578 140.844 94.3516 140.844C95.3828 140.844 96.2969 140.086 97.0938 138.57C97.8906 137.055 98.7188 134.836 99.5781 131.914V125.094C99.5781 124.828 99.6953 124.617 99.9297 124.461C100.18 124.289 100.461 124.156 100.773 124.062C101.086 123.969 101.391 123.906 101.688 123.875C101.984 123.828 102.195 123.805 102.32 123.805C102.805 123.805 103.047 124.047 103.047 124.531C103.047 124.703 103.031 124.992 103 125.398C102.984 125.789 102.961 126.258 102.93 126.805C102.898 127.336 102.867 127.93 102.836 128.586C102.82 129.227 102.812 129.875 102.812 130.531V140.07C103.094 139.711 103.445 139.234 103.867 138.641C104.305 138.047 104.75 137.414 105.203 136.742C105.672 136.07 106.117 135.398 106.539 134.727C106.977 134.055 107.328 133.453 107.594 132.922L107.852 132.43L108.812 133.156L108.555 133.648C108.227 134.305 107.836 134.984 107.383 135.688C106.93 136.391 106.445 137.102 105.93 137.82C105.43 138.523 104.906 139.227 104.359 139.93C103.828 140.617 103.312 141.273 102.812 141.898V147.078C102.812 148.516 102.68 149.734 102.414 150.734C102.164 151.75 101.812 152.57 101.359 153.195C100.906 153.836 100.375 154.297 99.7656 154.578C99.1562 154.859 98.4922 155 97.7734 155C97.3203 155 96.8984 154.93 96.5078 154.789C96.1328 154.648 95.8047 154.438 95.5234 154.156C95.2422 153.891 95.0234 153.562 94.8672 153.172C94.7109 152.797 94.6328 152.367 94.6328 151.883C94.6328 151.18 94.7578 150.477 95.0078 149.773C95.2734 149.07 95.6328 148.344 96.0859 147.594C96.5547 146.844 97.0938 146.07 97.7031 145.273C98.3125 144.492 98.9688 143.672 99.6719 142.812V135.711C99.2812 136.773 98.8594 137.758 98.4062 138.664C97.9531 139.555 97.4609 140.32 96.9297 140.961C96.3984 141.602 95.8281 142.102 95.2188 142.461C94.6094 142.82 93.9531 143 93.25 143C92.75 143 92.2344 142.922 91.7031 142.766C91.1875 142.594 90.7031 142.289 90.25 141.852C89.8125 141.414 89.4531 140.828 89.1719 140.094C88.8906 139.344 88.75 138.391 88.75 137.234C88.75 135.922 88.8281 134.586 88.9844 133.227C89.1406 131.867 89.3203 130.602 89.5234 129.43C89.7422 128.258 89.9609 127.234 90.1797 126.359C90.3984 125.469 90.5703 124.836 90.6953 124.461ZM97.5156 153.57C97.7656 153.57 98.0156 153.516 98.2656 153.406C98.5312 153.312 98.7656 153.086 98.9688 152.727C99.1719 152.367 99.3359 151.836 99.4609 151.133C99.6016 150.43 99.6719 149.477 99.6719 148.273V144.734C99.1406 145.391 98.6484 146.023 98.1953 146.633C97.7578 147.258 97.375 147.859 97.0469 148.438C96.7188 149.031 96.4609 149.602 96.2734 150.148C96.0859 150.695 95.9922 151.227 95.9922 151.742C95.9922 152.227 96.125 152.648 96.3906 153.008C96.6562 153.383 97.0312 153.57 97.5156 153.57Z" fill="#5A3C24"/>
<path d="M136.703 116.398C137.062 116.133 137.383 115.812 137.664 115.438C137.961 115.062 138.211 114.656 138.414 114.219C138.617 113.781 138.773 113.32 138.883 112.836C138.992 112.352 139.047 111.859 139.047 111.359C139.047 110.609 138.914 109.867 138.648 109.133C138.398 108.383 137.984 107.711 137.406 107.117C136.844 106.508 136.109 106.016 135.203 105.641C134.297 105.266 133.195 105.078 131.898 105.078C130.461 105.078 129.102 105.312 127.82 105.781C126.539 106.25 125.414 106.883 124.445 107.68C123.492 108.477 122.734 109.398 122.172 110.445C121.609 111.492 121.328 112.586 121.328 113.727C121.328 114.93 121.609 116 122.172 116.938C122.75 117.859 123.5 118.703 124.422 119.469C125.359 120.219 126.422 120.914 127.609 121.555C128.797 122.195 130.008 122.828 131.242 123.453C132.477 124.078 133.688 124.734 134.875 125.422C136.062 126.094 137.117 126.852 138.039 127.695C138.977 128.539 139.727 129.484 140.289 130.531C140.867 131.578 141.156 132.789 141.156 134.164C141.156 135.477 140.844 136.734 140.219 137.938C139.594 139.141 138.734 140.211 137.641 141.148C136.547 142.07 135.258 142.805 133.773 143.352C132.305 143.914 130.719 144.195 129.016 144.195C127.109 144.195 125.531 143.984 124.281 143.562C123.047 143.156 122.062 142.641 121.328 142.016C120.609 141.391 120.109 140.719 119.828 140C119.547 139.266 119.406 138.586 119.406 137.961C119.406 137.195 119.523 136.508 119.758 135.898C120.008 135.273 120.336 134.719 120.742 134.234C121.148 133.734 121.602 133.305 122.102 132.945C122.617 132.57 123.141 132.258 123.672 132.008C124.219 131.742 124.742 131.531 125.242 131.375C125.758 131.203 126.219 131.078 126.625 131L126.859 132.195C126.672 132.258 126.328 132.414 125.828 132.664C125.344 132.898 124.836 133.25 124.305 133.719C123.773 134.172 123.305 134.742 122.898 135.43C122.492 136.117 122.289 136.93 122.289 137.867C122.289 138.508 122.422 139.133 122.688 139.742C122.969 140.352 123.383 140.898 123.93 141.383C124.477 141.867 125.148 142.258 125.945 142.555C126.742 142.852 127.672 143 128.734 143C130.016 143 131.133 142.883 132.086 142.648C133.055 142.398 133.883 142.078 134.57 141.688C135.273 141.297 135.844 140.852 136.281 140.352C136.734 139.836 137.086 139.305 137.336 138.758C137.602 138.211 137.781 137.672 137.875 137.141C137.984 136.594 138.039 136.102 138.039 135.664C138.039 134.477 137.766 133.438 137.219 132.547C136.672 131.641 135.945 130.836 135.039 130.133C134.148 129.414 133.133 128.766 131.992 128.188C130.852 127.594 129.68 127.008 128.477 126.43C127.289 125.852 126.125 125.25 124.984 124.625C123.844 124 122.82 123.289 121.914 122.492C121.023 121.695 120.305 120.789 119.758 119.773C119.211 118.742 118.938 117.539 118.938 116.164C118.938 114.32 119.32 112.633 120.086 111.102C120.852 109.555 121.883 108.234 123.18 107.141C124.477 106.031 125.977 105.172 127.68 104.562C129.398 103.953 131.203 103.648 133.094 103.648C134.703 103.648 136.078 103.836 137.219 104.211C138.359 104.586 139.289 105.078 140.008 105.688C140.742 106.297 141.273 106.992 141.602 107.773C141.945 108.555 142.117 109.352 142.117 110.164C142.117 111.133 141.945 112.016 141.602 112.812C141.273 113.609 140.867 114.32 140.383 114.945C139.914 115.555 139.406 116.07 138.859 116.492C138.312 116.898 137.828 117.188 137.406 117.359L136.703 116.398ZM147.742 134.844C147.742 135.609 147.719 136.422 147.672 137.281C147.625 138.125 147.523 138.977 147.367 139.836C147.227 140.68 147.016 141.508 146.734 142.32C146.453 143.117 146.07 143.859 145.586 144.547L143.805 144.008C144.195 142.695 144.43 141.32 144.508 139.883C144.586 138.445 144.625 137.008 144.625 135.57C144.625 134.008 144.578 132.445 144.484 130.883C144.375 129.32 144.258 127.758 144.133 126.195C143.992 124.617 143.875 123.031 143.781 121.438C143.672 119.844 143.617 118.234 143.617 116.609C143.617 115.625 143.727 114.766 143.945 114.031C144.148 113.297 144.422 112.688 144.766 112.203C145.109 111.719 145.492 111.359 145.914 111.125C146.336 110.875 146.758 110.75 147.18 110.75C147.773 110.75 148.242 110.961 148.586 111.383C148.945 111.805 149.211 112.375 149.383 113.094C149.555 113.812 149.641 114.648 149.641 115.602C149.656 116.555 149.617 117.562 149.523 118.625C149.43 119.688 149.297 120.773 149.125 121.883C148.953 122.992 148.766 124.07 148.562 125.117C148.359 126.164 148.156 127.141 147.953 128.047C147.766 128.953 147.602 129.727 147.461 130.367C147.461 130.492 147.469 130.625 147.484 130.766C147.5 130.891 147.508 131.016 147.508 131.141C147.836 130.406 148.234 129.617 148.703 128.773C149.188 127.914 149.727 127.117 150.32 126.383C150.93 125.648 151.586 125.039 152.289 124.555C153.008 124.055 153.766 123.805 154.562 123.805C155.734 123.805 156.617 124.195 157.211 124.977C157.805 125.758 158.102 126.883 158.102 128.352C158.102 129.367 158.047 130.344 157.938 131.281C157.828 132.219 157.703 133.125 157.562 134C157.438 134.859 157.32 135.695 157.211 136.508C157.102 137.32 157.047 138.125 157.047 138.922C157.047 139.875 157.289 140.352 157.773 140.352C158.008 140.352 158.305 140.148 158.664 139.742C159.039 139.32 159.453 138.766 159.906 138.078C160.359 137.391 160.836 136.602 161.336 135.711C161.836 134.82 162.328 133.891 162.812 132.922L163.047 132.43L164.008 133.156L163.773 133.648C163.227 134.727 162.656 135.82 162.062 136.93C161.469 138.039 160.859 139.047 160.234 139.953C159.609 140.844 158.969 141.578 158.312 142.156C157.672 142.719 157.031 143 156.391 143C156.109 143 155.82 142.953 155.523 142.859C155.242 142.766 154.984 142.602 154.75 142.367C154.516 142.133 154.32 141.82 154.164 141.43C154.008 141.023 153.93 140.508 153.93 139.883C153.93 139.258 153.961 138.578 154.023 137.844C154.086 137.109 154.156 136.359 154.234 135.594C154.328 134.812 154.43 134.039 154.539 133.273C154.648 132.508 154.742 131.789 154.82 131.117C154.914 130.445 154.992 129.844 155.055 129.312C155.117 128.766 155.148 128.32 155.148 127.977C155.148 127.086 155.023 126.438 154.773 126.031C154.523 125.625 154.148 125.422 153.648 125.422C153.023 125.422 152.422 125.695 151.844 126.242C151.266 126.789 150.719 127.477 150.203 128.305C149.703 129.117 149.242 130 148.82 130.953C148.398 131.891 148.023 132.758 147.695 133.555C147.695 133.789 147.703 134.023 147.719 134.258C147.734 134.477 147.742 134.672 147.742 134.844ZM146.219 114.781C146.219 115.422 146.242 116.203 146.289 117.125C146.352 118.031 146.422 119.016 146.5 120.078C146.594 121.141 146.688 122.25 146.781 123.406C146.891 124.562 147 125.703 147.109 126.828C147.281 125.953 147.453 124.992 147.625 123.945C147.797 122.883 147.945 121.82 148.07 120.758C148.211 119.68 148.312 118.633 148.375 117.617C148.453 116.602 148.469 115.703 148.422 114.922C148.391 114.141 148.289 113.516 148.117 113.047C147.945 112.562 147.695 112.32 147.367 112.32C147.07 112.32 146.805 112.5 146.57 112.859C146.336 113.219 146.219 113.859 146.219 114.781ZM182.688 133.156L182.43 133.648C181.898 134.711 181.188 135.562 180.297 136.203C179.422 136.828 178.469 137.234 177.438 137.422C177.156 138.219 176.789 138.961 176.336 139.648C175.898 140.32 175.391 140.906 174.812 141.406C174.25 141.906 173.609 142.297 172.891 142.578C172.188 142.859 171.422 143 170.594 143C169.391 143 168.305 142.75 167.336 142.25C166.383 141.734 165.57 141.047 164.898 140.188C164.227 139.312 163.711 138.297 163.352 137.141C162.992 135.969 162.812 134.719 162.812 133.391C162.812 132.234 162.945 131.188 163.211 130.25C163.477 129.297 163.812 128.453 164.219 127.719C164.625 126.969 165.078 126.32 165.578 125.773C166.078 125.211 166.57 124.75 167.055 124.391C167.539 124.031 167.977 123.766 168.367 123.594C168.773 123.406 169.078 123.312 169.281 123.312L169.586 124.133C168.945 124.602 168.375 125.258 167.875 126.102C167.438 126.82 167.039 127.773 166.68 128.961C166.336 130.148 166.164 131.625 166.164 133.391C166.164 134.469 166.266 135.516 166.469 136.531C166.672 137.547 166.969 138.445 167.359 139.227C167.75 140.008 168.227 140.633 168.789 141.102C169.367 141.57 170.016 141.805 170.734 141.805C171.719 141.805 172.531 141.414 173.172 140.633C173.828 139.836 174.312 138.75 174.625 137.375C173.812 137.203 173.039 136.883 172.305 136.414C171.57 135.945 170.922 135.367 170.359 134.68C169.797 133.977 169.344 133.172 169 132.266C168.672 131.359 168.508 130.375 168.508 129.312C168.508 128.438 168.617 127.672 168.836 127.016C169.07 126.344 169.375 125.789 169.75 125.352C170.125 124.898 170.555 124.562 171.039 124.344C171.539 124.109 172.062 123.992 172.609 123.992C173.25 123.992 173.906 124.18 174.578 124.555C175.25 124.914 175.859 125.461 176.406 126.195C176.953 126.914 177.398 127.82 177.742 128.914C178.086 130.008 178.258 131.281 178.258 132.734C178.258 133.281 178.227 133.82 178.164 134.352C178.102 134.883 178.008 135.398 177.883 135.898C178.633 135.68 179.312 135.328 179.922 134.844C180.547 134.359 181.062 133.719 181.469 132.922L181.727 132.43L182.688 133.156ZM170.055 129.125C170.055 130.047 170.18 130.898 170.43 131.68C170.695 132.445 171.047 133.125 171.484 133.719C171.922 134.297 172.43 134.781 173.008 135.172C173.586 135.562 174.203 135.836 174.859 135.992C174.938 135.555 174.984 135.102 175 134.633C175.031 134.148 175.047 133.656 175.047 133.156C175.047 132.047 174.961 131.047 174.789 130.156C174.617 129.25 174.391 128.484 174.109 127.859C173.828 127.219 173.5 126.727 173.125 126.383C172.75 126.039 172.367 125.867 171.977 125.867C171.445 125.867 170.992 126.156 170.617 126.734C170.242 127.297 170.055 128.094 170.055 129.125ZM184.82 128.211C185.086 127.633 185.406 127.078 185.781 126.547C186.156 126.016 186.586 125.547 187.07 125.141C187.555 124.734 188.094 124.414 188.688 124.18C189.281 123.93 189.93 123.805 190.633 123.805C191.57 123.805 192.398 124.031 193.117 124.484C193.836 124.922 194.438 125.516 194.922 126.266C195.406 127 195.773 127.859 196.023 128.844C196.273 129.812 196.398 130.82 196.398 131.867C196.398 133.477 196.234 134.93 195.906 136.227C195.594 137.508 195.164 138.633 194.617 139.602C195.461 138.961 196.312 138.109 197.172 137.047C198.047 135.984 198.906 134.609 199.75 132.922L199.984 132.43L200.945 133.156L200.711 133.648C199.992 135.086 199.203 136.383 198.344 137.539C197.484 138.695 196.57 139.68 195.602 140.492C194.648 141.289 193.648 141.906 192.602 142.344C191.555 142.781 190.484 143 189.391 143C188.422 143 187.523 142.789 186.695 142.367C185.883 141.945 185.258 141.422 184.82 140.797V151.883C184.82 152.477 184.773 152.969 184.68 153.359C184.602 153.766 184.461 154.086 184.258 154.32C184.07 154.57 183.812 154.742 183.484 154.836C183.156 154.945 182.758 155 182.289 155C181.93 155 181.68 154.938 181.539 154.812C181.398 154.703 181.328 154.523 181.328 154.273C181.328 154.164 181.344 153.969 181.375 153.688C181.406 153.406 181.438 152.977 181.469 152.398C181.5 151.836 181.531 151.086 181.562 150.148C181.594 149.227 181.609 148.047 181.609 146.609V133.648C181.609 131.914 181.602 130.531 181.586 129.5C181.57 128.453 181.555 127.641 181.539 127.062C181.523 126.469 181.508 126.047 181.492 125.797C181.477 125.547 181.469 125.328 181.469 125.141C181.469 124.984 181.547 124.828 181.703 124.672C181.859 124.516 182.062 124.375 182.312 124.25C182.562 124.125 182.828 124.023 183.109 123.945C183.406 123.852 183.688 123.805 183.953 123.805C184.219 123.805 184.43 123.875 184.586 124.016C184.742 124.156 184.82 124.406 184.82 124.766V128.211ZM189.391 125.867C188.734 125.867 188.125 126.094 187.562 126.547C187.016 127 186.539 127.586 186.133 128.305C185.742 129.008 185.43 129.789 185.195 130.648C184.977 131.508 184.867 132.344 184.867 133.156V135.852C184.867 136.695 184.977 137.461 185.195 138.148C185.43 138.836 185.734 139.422 186.109 139.906C186.484 140.391 186.922 140.766 187.422 141.031C187.938 141.281 188.477 141.406 189.039 141.406C190.367 141.406 191.367 140.719 192.039 139.344C192.727 137.969 193.07 135.812 193.07 132.875C193.07 131.875 193 130.945 192.859 130.086C192.719 129.227 192.5 128.484 192.203 127.859C191.906 127.234 191.523 126.75 191.055 126.406C190.586 126.047 190.031 125.867 189.391 125.867Z" fill="#F68B9B"/>
</svg>
